<svg width="335" height="33" viewBox="0 0 335 33" fill="none" xmlns="http://www.w3.org/2000/svg">
<path d="M189.763 4.99622H175.186V8.54433C175.186 14.3666 174.465 17.8075 172.953 20.2483H171.086V28.5233H175.812V24.6894H187.601V28.5233H192.35V20.2483H189.763V4.99622ZM184.731 20.2602H178.422C179.261 17.9742 180.124 14.3189 180.183 9.44922H184.731V20.2602Z" fill="white"/>
<path d="M204.613 4.60431C198.6 4.60431 194.3 9.224 194.3 14.8557C194.3 20.4517 198.6 25.1071 204.613 25.1071C210.614 25.1071 214.914 20.4636 214.914 14.8557C214.914 9.224 210.614 4.60431 204.613 4.60431ZM204.613 20.4279C201.648 20.4279 199.474 18.0705 199.474 14.8557C199.474 11.641 201.66 9.28353 204.613 9.28353C207.566 9.28353 209.752 11.6529 209.752 14.8557C209.752 18.0705 207.578 20.4279 204.613 20.4279Z" fill="white"/>
<path d="M222.591 14.8557C222.591 11.6172 225.072 9.28353 228.344 9.28353C230.518 9.28353 231.947 9.84313 233.341 10.7123V5.73542C231.864 5.00913 230.128 4.60431 228.285 4.60431C222.059 4.60431 217.417 8.79536 217.417 14.8557C217.417 20.9042 222.107 25.1071 228.309 25.1071C230.234 25.1071 232.16 24.6547 233.672 23.8689V18.8563C232.136 20.035 230.399 20.4279 228.533 20.4279C225.131 20.4279 222.591 18.1538 222.591 14.8557Z" fill="white"/>
<path d="M252.444 4.99969H235.712V9.4383H241.552V24.6411H246.568V9.4383H252.444V4.99969Z" fill="white"/>
<path d="M258.906 4.99969L250.771 24.6411H256.026L257.653 20.5123H264.851L266.478 24.6411H271.815L263.681 4.99969H258.906ZM259.233 16.4896L261.258 11.2755L263.283 16.4896H259.233Z" fill="white"/>
<path d="M287.431 13.7701C288.373 13.3191 289.715 12.0848 289.715 9.96048C289.715 6.58999 287.042 4.99969 283.651 4.99969H274.16V24.6411H284.181C288.384 24.6411 291.14 22.3743 291.14 19.0038C291.128 15.9063 289.044 14.1736 287.431 13.7701ZM279.165 9.09413H282.897C284.122 9.09413 284.899 9.735 284.899 10.8268C284.899 11.8594 284.122 12.5121 282.897 12.5121H279.165V9.09413ZM283.203 20.428H279.165V16.2505H283.203C284.711 16.2505 285.653 17.0694 285.653 18.3511C285.653 19.6684 284.699 20.428 283.203 20.428Z" fill="white"/>
<path d="M311.389 4.99969H305.372L299.06 12.5002V4.99969H294.044V24.6411H299.06V15.9182L306.691 24.6411H312.778L303.841 14.0431L311.389 4.99969Z" fill="white"/>
<path d="M325.893 4.99969H321.106L312.971 24.6411H318.227L319.854 20.5123H327.052L328.679 24.6411H334.016L325.893 4.99969ZM321.434 16.4896L323.459 11.2755L325.483 16.4896H321.434Z" fill="white"/>
<path fill-rule="evenodd" clip-rule="evenodd" d="M131.364 8.97259C131.364 6.58197 132.295 4.33106 133.994 2.63123C135.693 0.931411 137.943 0 140.333 0H161.05V4.56391H140.333C139.162 4.56391 138.06 5.02186 137.222 5.86012C136.384 6.69839 135.926 7.80832 135.926 8.98035L135.895 16.6412C135.686 18.6748 134.149 20.3125 132.171 20.6152L131.364 20.7316V8.97259ZM131.364 29.6428V25.0789H152.08C153.252 25.0789 154.361 24.6132 155.191 23.7827C156.029 22.9444 156.487 21.8422 156.487 20.6702L156.495 13.4052C156.495 11.2397 158.109 9.36132 160.242 9.03533L161.049 8.91114V20.6702C161.049 23.0608 160.111 25.3117 158.419 27.0116C157.812 27.6188 157.135 28.128 156.406 28.5317C156.499 28.8446 156.55 29.1761 156.55 29.5194C156.55 31.4218 155.007 32.9639 153.105 32.9639C151.244 32.9639 149.728 31.488 149.663 29.6428H142.742C142.677 31.488 141.161 32.9639 139.3 32.9639C137.439 32.9639 135.923 31.488 135.858 29.6428H131.364ZM148.908 14.8576V20.7488H152.485V9.14495H149.102L146.208 12.8784L143.321 9.14495H139.931V20.7488H143.507V14.8576L146.208 18.0787L148.908 14.8576Z" fill="white"/>
<path d="M46.2971 24.6963V4.99695H58.7315V9.57638H51.482V24.6963H46.2971Z" fill="white"/>
<path d="M74.3842 24.6963V16.9811H66.6846V24.6963H61.4997V4.99695H66.6846V12.3473H74.3842V4.99695H79.5769V24.6963H74.3842Z" fill="white"/>
<path d="M109.665 24.6963V9.57638H103.611V4.99695H120.943V9.57638H114.858V24.6963H109.665Z" fill="white"/>
<path d="M95.9895 24.6963V13.4728L87.731 24.6963H83.3922V4.99695H88.5848V16.104L96.6959 4.99695H101.174V24.6963H95.9895Z" fill="white"/>
<path d="M16.4946 24.6964V12.9916L11.3175 19.17L6.14039 12.9916V24.6964H0.955536V4.99701H6.07053L11.3175 11.773L16.5644 4.99701H21.6794V24.6964H16.4946Z" fill="white"/>
<path d="M31.5405 17.7728H36.3606L33.9467 11.5944L31.5405 17.7728ZM39.0617 24.6963L37.9828 21.9331H29.9105L28.8317 24.6963H23.608L31.5871 4.99695H36.3839L44.363 24.6963H39.0617Z" fill="white"/>
</svg>
