<svg id="logo" width="144" height="36" viewBox="0 0 144 36" fill="none" xmlns="http://www.w3.org/2000/svg">
<g clip-path="url(#clip0_1_23)">
<path fill-rule="evenodd" clip-rule="evenodd" d="M0 9.75859C0 7.15853 1.00887 4.71046 2.85007 2.86173C4.69126 1.013 7.12934 0 9.71882 0H32.1662V4.96371H9.71882C8.44932 4.96371 7.25546 5.46175 6.34751 6.37346C5.43951 7.28517 4.94347 8.49236 4.94347 9.76702L4.90984 18.099C4.68285 20.3107 3.01821 22.0919 0.874359 22.4211L0 22.5477V9.75859ZM0 32.2388V27.2751H22.4474C23.7169 27.2751 24.9191 26.7686 25.8187 25.8653C26.7267 24.9537 27.2228 23.7549 27.2228 22.4802L27.2312 14.5788C27.2312 12.2236 28.9799 10.1806 31.2918 9.82613L32.1662 9.69105V22.4802C32.1662 25.0802 31.1489 27.5284 29.3162 29.3771C28.6565 30.0394 27.9204 30.5944 27.1281 31.034C27.2291 31.374 27.2834 31.7341 27.2834 32.107C27.2834 34.176 25.6124 35.8532 23.5512 35.8532C21.5338 35.8532 19.8903 34.2468 19.8212 32.2388H12.3341C12.2649 34.2468 10.6214 35.8532 8.60408 35.8532C6.58674 35.8532 4.94324 34.2468 4.87408 32.2388H0ZM19.0089 16.1574V22.5646H22.8846V9.94428H19.219L16.0831 14.0048L12.9556 9.94428H9.28163V22.5646H13.1574V16.1574L16.0831 19.6607L19.0089 16.1574Z" fill="white"/>
<path d="M53.8933 19.9922H44.8391V22.2043C44.8391 25.8341 44.3915 27.9794 43.4523 29.5011H42.293V34.6601H45.2279V32.2699H52.5508V34.6601H55.5003V29.5011H53.8933V19.9922ZM50.7678 29.5085H46.8496C47.3705 28.0833 47.9062 25.8044 47.9429 22.7684H50.7678V29.5085Z" fill="white"/>
<path d="M63.1165 19.75C59.3816 19.75 56.7109 22.6301 56.7109 26.1412C56.7109 29.63 59.3816 32.5324 63.1165 32.5324C66.8439 32.5324 69.5146 29.6374 69.5146 26.1412C69.5146 22.6301 66.8439 19.75 63.1165 19.75ZM63.1165 29.6152C61.275 29.6152 59.925 28.1454 59.925 26.1412C59.925 24.137 61.282 22.6672 63.1165 22.6672C64.9511 22.6672 66.3086 24.1444 66.3086 26.1412C66.3086 28.1454 64.9586 29.6152 63.1165 29.6152Z" fill="white"/>
<path d="M74.2843 26.1412C74.2843 24.1221 75.825 22.6672 77.8576 22.6672C79.2077 22.6672 80.0957 23.0161 80.9614 23.558V20.4552C80.0444 20.0024 78.9657 19.75 77.8212 19.75C73.9541 19.75 71.0703 22.3629 71.0703 26.1412C71.0703 29.9121 73.9835 32.5324 77.8356 32.5324C79.0315 32.5324 80.228 32.2503 81.1669 31.7604V28.6353C80.213 29.3702 79.1343 29.6152 77.9748 29.6152C75.8619 29.6152 74.2843 28.1974 74.2843 26.1412Z" fill="white"/>
<path d="M92.8307 19.9922H82.4375V22.7595H86.0653V32.2376H89.1809V22.7595H92.8307V19.9922Z" fill="white"/>
<path d="M96.8336 19.9922L91.7812 32.2376H95.0456L96.0557 29.6635H100.527L101.537 32.2376H104.853L99.7997 19.9922H96.8336ZM97.0375 27.1555L98.295 23.9049L99.5524 27.1555H97.0375Z" fill="white"/>
<path d="M114.563 25.4601C115.148 25.1789 115.982 24.4094 115.982 23.085C115.982 20.9837 114.322 19.9922 112.215 19.9922H106.32V32.2376H112.544C115.156 32.2376 116.867 30.8244 116.867 28.723C116.86 26.7919 115.565 25.7116 114.563 25.4601ZM109.429 22.5449H111.747C112.508 22.5449 112.991 22.9444 112.991 23.6251C112.991 24.2688 112.508 24.6758 111.747 24.6758H109.429V22.5449ZM111.937 29.6109H109.429V27.0065H111.937C112.874 27.0065 113.459 27.517 113.459 28.3161C113.459 29.1374 112.866 29.6109 111.937 29.6109Z" fill="white"/>
<path d="M129.433 19.9922H125.696L121.776 24.6684V19.9922H118.66V32.2376H121.776V26.7993L126.515 32.2376H130.297L124.746 25.6303L129.433 19.9922Z" fill="white"/>
<path d="M138.448 19.9922H135.475L130.422 32.2376H133.686L134.697 29.6635H139.168L140.179 32.2376H143.493L138.448 19.9922ZM135.678 27.1555L136.936 23.9049L138.194 27.1555H135.678Z" fill="white"/>
<path d="M71.5625 12.2757V0.03125H79.2668V2.87314H74.7803V12.2757H71.5625Z" fill="white"/>
<path d="M88.9659 12.2757V7.47747H84.1936V12.2757H80.9844V0.03125H84.1936V4.60186H88.9659V0.03125H92.1752V12.2757H88.9659Z" fill="white"/>
<path d="M110.818 12.2757V2.87314H107.07V0.03125H117.799V2.87314H114.035V12.2757H110.818Z" fill="white"/>
<path d="M102.339 12.2757V5.29336L97.2228 12.2757H94.543V0.03125H97.7522V6.93774L102.776 0.03125H105.557V12.2757H102.339Z" fill="white"/>
<path d="M53.1041 12.2757V4.99821L49.9031 8.84359L46.6937 4.99821V12.2757H43.4844V0.03125H46.6517L49.9031 4.23926L53.1461 0.03125H56.3221V12.2757H53.1041Z" fill="white"/>
<path d="M62.414 7.97439H65.4048L63.9097 4.13741L62.414 7.97439ZM67.0771 12.2835L66.4133 10.597H61.4145L60.7422 12.2835H57.5078L62.4477 0.0390625H65.4637L70.3618 12.2835H67.0771Z" fill="white"/>
</g>
<defs>
<clipPath id="clip0_1_23">
<rect width="144" height="36" fill="white"/>
</clipPath>
</defs>
</svg>
