<svg id="tg" width="19" height="14" viewBox="0 0 19 14" fill="none" xmlns="http://www.w3.org/2000/svg">
<path fill-rule="evenodd" clip-rule="evenodd" d="M1.24557 5.85323C6.11308 3.93464 9.35842 2.66963 10.9816 2.05829C15.6177 0.313425 16.5813 0.0100952 17.209 9.38244e-05C17.3473 -0.00200437 17.6561 0.0303086 17.8561 0.175994C18.0247 0.299857 18.0715 0.467573 18.0935 0.585072C18.1275 0.781674 18.1369 0.981143 18.1216 1.1797C17.8702 3.56843 16.7833 9.36646 16.2301 12.041C15.9963 13.1729 15.5352 13.5517 15.0892 13.5898C14.1209 13.6705 13.3836 13.01 12.4444 12.4528C10.9753 11.5815 10.1452 11.0389 8.71876 10.1883C7.0704 9.20545 8.13916 8.66524 9.07839 7.78238C9.32418 7.55123 13.596 4.03584 13.6785 3.71642C13.6888 3.67656 13.6985 3.52794 13.6006 3.44939C13.5028 3.37078 13.3593 3.39771 13.2551 3.41918C13.1077 3.44939 10.7605 4.8533 6.21325 7.63096C5.54677 8.04494 4.94337 8.24637 4.40288 8.23525C3.80659 8.2235 2.65999 7.9301 1.80755 7.67936C0.762125 7.37177 -0.0689763 7.20923 0.00452672 6.68712C0.0417033 6.41555 0.45536 6.13761 1.24557 5.85323Z" fill="#2AABEE"/>
</svg>
