<svg width="111" height="111" viewBox="0 0 111 111" fill="none" xmlns="http://www.w3.org/2000/svg">
<g filter="url(#filter0_dii_1_170)">
<path d="M11.776 60.7673C5.36962 49.6712 9.17144 35.4827 20.2675 29.0763L50.2331 11.7757C61.3292 5.36938 75.5177 9.17119 81.924 20.2673L99.2246 50.2328C105.631 61.3289 101.829 75.5174 90.7331 81.9238L60.7675 99.2244C49.6714 105.631 35.4829 101.829 29.0766 90.7328L11.776 60.7673Z" fill="#E3E0FB"/>
</g>
<g filter="url(#filter1_ddi_1_170)">
<path d="M61.1112 31.5257C59.5708 31.1819 53.8058 30.5896 44.7232 35.7801C44.7232 35.7801 33.6694 41.3066 31.208 49.0711C29.9762 53.6328 31.3961 58.4471 34.3132 63.748C37.2301 69.0489 42.7594 78.9473 53.7989 76.1229L53.808 76.1176L56.1472 80.1833C56.1472 80.1833 57.0359 81.863 58.3169 81.5706C59.867 81.2181 59.9172 79.5225 60.3949 77.4502C60.657 76.3125 60.9815 74.6766 61.2193 73.432C68.0327 70.2246 72.3121 66.0938 72.7737 65.582C73.8412 64.4006 80.719 59.1658 76.2591 48.652C71.6636 37.8136 66.1189 32.4809 61.1112 31.5257ZM72.9963 49.568C76.7095 58.3535 70.9845 62.3455 70.0789 63.3413C69.6939 63.7653 65.932 67.3875 60.2044 70.2159C60.2044 70.2159 58.9443 77.533 58.4014 79.5599C58.3169 79.8766 58.1278 80.0938 57.9474 80.1448C57.6951 80.2186 57.4836 79.9928 57.2659 79.61C56.955 79.0632 53.4039 72.8395 53.4039 72.8395C44.0823 75.2578 39.7265 66.6313 37.2914 62.2029C34.8561 57.7746 33.6121 53.7134 34.6719 49.8871C36.7827 43.3701 46.2004 38.7245 46.2004 38.7245C53.8829 34.3333 58.8821 34.5115 60.1781 34.7898C64.3973 35.5684 69.1686 40.5057 72.9949 49.5656L72.9963 49.568Z" fill="#7360F2"/>
</g>
<g filter="url(#filter2_ddi_1_170)">
<path fill-rule="evenodd" clip-rule="evenodd" d="M52.419 48.7488C52.2713 48.4588 52.3874 48.1035 52.6785 47.955C53.7675 47.3994 54.831 47.2103 55.83 47.4938C56.8251 47.7761 57.6492 48.4972 58.3255 49.5444C58.502 49.8177 58.4225 50.183 58.148 50.3601C57.8734 50.5372 57.5077 50.4592 57.3312 50.1858C56.7524 49.2895 56.1353 48.8079 55.5029 48.6285C54.8744 48.4501 54.1244 48.5404 53.2135 49.0049C52.9224 49.1533 52.5668 49.0387 52.419 48.7488Z" fill="#7360F2"/>
</g>
<g filter="url(#filter3_ddi_1_170)">
<path d="M50.0558 46.4479C49.9141 46.1548 50.0376 45.8019 50.3318 45.6596C52.5738 44.5741 54.7284 44.3066 56.7817 44.9495C58.8134 45.5871 60.3819 46.934 61.4827 48.9401C61.6394 49.2255 61.5341 49.5841 61.2477 49.7414C60.9613 49.8985 60.6021 49.7948 60.4456 49.5095C59.4749 47.7404 58.1356 46.6123 56.424 46.0752C54.7182 45.5411 52.8775 45.7364 50.8445 46.7205C50.5506 46.863 50.1973 46.7408 50.0558 46.4479Z" fill="#7360F2"/>
</g>
<g filter="url(#filter4_ddi_1_170)">
<path fill-rule="evenodd" clip-rule="evenodd" d="M47.6418 44.3573C47.481 44.0744 47.581 43.7141 47.8652 43.5528C50.8504 41.8567 53.9329 41.3914 57.0818 42.1856C60.2571 42.9863 62.8162 45.0948 64.7702 48.4201C64.9351 48.7007 64.8403 49.0624 64.5585 49.2279C64.2768 49.3935 63.9148 49.3002 63.75 49.0195C61.9189 45.9034 59.5947 44.0368 56.7884 43.3293C53.9559 42.6149 51.1857 43.0216 48.4471 44.5774C48.1631 44.7387 47.8025 44.6402 47.6418 44.3573Z" fill="#7360F2"/>
</g>
<g filter="url(#filter5_ddi_1_170)">
<path d="M58.814 58.4084C58.814 58.4084 59.5691 58.0532 59.6822 57.3535L59.8914 55.9697C59.9849 55.2894 60.6919 54.4818 61.8299 54.4624C62.6875 54.4563 63.5447 54.493 64.3983 54.5726C65.212 54.6613 66.9451 54.9584 66.9487 54.9563C67.7775 55.1033 68.3042 55.7177 68.3437 56.6634C68.3461 56.6675 68.3473 56.6766 68.3494 56.6802C68.348 57.6442 68.193 58.6022 67.89 59.5184C67.8847 59.5262 67.8868 59.5298 67.8823 59.5374C67.6006 60.3016 67.2159 60.8655 66.7285 61.2293C66.6593 61.287 66.5838 61.3372 66.5036 61.3785C66.2742 61.5138 66.0243 61.6112 65.764 61.6667L65.7326 61.6517C64.796 61.8907 63.1233 62.1009 60.1716 62.1635C58.4683 62.2081 56.7648 62.1087 55.0795 61.8664C54.2349 61.7452 53.3981 61.5755 52.5733 61.3587L52.309 61.2884C52.2797 61.2811 52.2507 61.2729 52.2209 61.265C51.3973 61.0439 50.5872 60.7756 49.7945 60.4619C48.213 59.836 46.6877 59.0775 45.2352 58.1946C42.7101 56.676 41.3681 55.6655 40.6768 54.9929L40.642 54.9903C40.4448 54.813 40.2777 54.6047 40.1474 54.3736C40.0983 54.2983 40.058 54.2177 40.0272 54.1332C39.7921 53.5753 39.7436 52.8956 39.8815 52.0939C39.8813 52.0852 39.8849 52.0831 39.8844 52.0736C40.0837 51.1299 40.4325 50.2236 40.9176 49.3884C40.9212 49.3864 40.9264 49.3786 40.9307 49.3761C41.4415 48.5768 42.2074 48.3056 42.9968 48.5867C43.0025 48.5884 44.6514 49.1914 45.399 49.5193C46.1787 49.8743 46.9401 50.2681 47.68 50.6995C48.6553 51.2799 48.8616 52.3318 48.599 52.9662L48.0824 54.2682C47.8254 54.9316 48.3027 55.6125 48.3027 55.6125C48.3027 55.6125 52.7774 60.1093 58.814 58.4084Z" fill="#7360F2"/>
</g>
<defs>
<filter id="filter0_dii_1_170" x="4.8976" y="8.6637" width="101.205" height="101.785" filterUnits="userSpaceOnUse" color-interpolation-filters="sRGB">
<feFlood flood-opacity="0" result="BackgroundImageFix"/>
<feColorMatrix in="SourceAlpha" type="matrix" values="0 0 0 0 0 0 0 0 0 0 0 0 0 0 0 0 0 0 127 0" result="hardAlpha"/>
<feOffset dy="4.34579"/>
<feGaussianBlur stdDeviation="1.88318"/>
<feComposite in2="hardAlpha" operator="out"/>
<feColorMatrix type="matrix" values="0 0 0 0 0 0 0 0 0 0 0 0 0 0 0 0 0 0 0.03 0"/>
<feBlend mode="normal" in2="BackgroundImageFix" result="effect1_dropShadow_1_170"/>
<feBlend mode="normal" in="SourceGraphic" in2="effect1_dropShadow_1_170" result="shape"/>
<feColorMatrix in="SourceAlpha" type="matrix" values="0 0 0 0 0 0 0 0 0 0 0 0 0 0 0 0 0 0 127 0" result="hardAlpha"/>
<feOffset/>
<feGaussianBlur stdDeviation="2.02804"/>
<feComposite in2="hardAlpha" operator="arithmetic" k2="-1" k3="1"/>
<feColorMatrix type="matrix" values="0 0 0 0 0 0 0 0 0 0 0 0 0 0 0 0 0 0 0.15 0"/>
<feBlend mode="normal" in2="shape" result="effect2_innerShadow_1_170"/>
<feColorMatrix in="SourceAlpha" type="matrix" values="0 0 0 0 0 0 0 0 0 0 0 0 0 0 0 0 0 0 127 0" result="hardAlpha"/>
<feOffset dy="2.31776"/>
<feGaussianBlur stdDeviation="0.724299"/>
<feComposite in2="hardAlpha" operator="arithmetic" k2="-1" k3="1"/>
<feColorMatrix type="matrix" values="0 0 0 0 1 0 0 0 0 1 0 0 0 0 1 0 0 0 0.25 0"/>
<feBlend mode="normal" in2="effect2_innerShadow_1_170" result="effect3_innerShadow_1_170"/>
</filter>
<filter id="filter1_ddi_1_170" x="25.4201" y="27.0364" width="60.8769" height="75.9405" filterUnits="userSpaceOnUse" color-interpolation-filters="sRGB">
<feFlood flood-opacity="0" result="BackgroundImageFix"/>
<feColorMatrix in="SourceAlpha" type="matrix" values="0 0 0 0 0 0 0 0 0 0 0 0 0 0 0 0 0 0 127 0" result="hardAlpha"/>
<feOffset dx="1.60291" dy="2.67152"/>
<feGaussianBlur stdDeviation="3.47298"/>
<feComposite in2="hardAlpha" operator="out"/>
<feColorMatrix type="matrix" values="0 0 0 0 0 0 0 0 0 0 0 0 0 0 0 0 0 0 0.1 0"/>
<feBlend mode="normal" in2="BackgroundImageFix" result="effect1_dropShadow_1_170"/>
<feColorMatrix in="SourceAlpha" type="matrix" values="0 0 0 0 0 0 0 0 0 0 0 0 0 0 0 0 0 0 127 0" result="hardAlpha"/>
<feOffset dx="2.13722" dy="16.5634"/>
<feGaussianBlur stdDeviation="2.40437"/>
<feComposite in2="hardAlpha" operator="out"/>
<feColorMatrix type="matrix" values="0 0 0 0 1 0 0 0 0 1 0 0 0 0 1 0 0 0 0.25 0"/>
<feBlend mode="normal" in2="effect1_dropShadow_1_170" result="effect2_dropShadow_1_170"/>
<feBlend mode="normal" in="SourceGraphic" in2="effect2_dropShadow_1_170" result="shape"/>
<feColorMatrix in="SourceAlpha" type="matrix" values="0 0 0 0 0 0 0 0 0 0 0 0 0 0 0 0 0 0 127 0" result="hardAlpha"/>
<feOffset dx="-1.06861" dy="-2.67152"/>
<feGaussianBlur stdDeviation="1.33576"/>
<feComposite in2="hardAlpha" operator="arithmetic" k2="-1" k3="1"/>
<feColorMatrix type="matrix" values="0 0 0 0 0 0 0 0 0 0 0 0 0 0 0 0 0 0 0.25 0"/>
<feBlend mode="normal" in2="shape" result="effect3_innerShadow_1_170"/>
</filter>
<filter id="filter2_ddi_1_170" x="47.0118" y="43.0888" width="19.9565" height="28.7383" filterUnits="userSpaceOnUse" color-interpolation-filters="sRGB">
<feFlood flood-opacity="0" result="BackgroundImageFix"/>
<feColorMatrix in="SourceAlpha" type="matrix" values="0 0 0 0 0 0 0 0 0 0 0 0 0 0 0 0 0 0 127 0" result="hardAlpha"/>
<feOffset dx="1.60291" dy="2.67152"/>
<feGaussianBlur stdDeviation="3.47298"/>
<feComposite in2="hardAlpha" operator="out"/>
<feColorMatrix type="matrix" values="0 0 0 0 0 0 0 0 0 0 0 0 0 0 0 0 0 0 0.1 0"/>
<feBlend mode="normal" in2="BackgroundImageFix" result="effect1_dropShadow_1_170"/>
<feColorMatrix in="SourceAlpha" type="matrix" values="0 0 0 0 0 0 0 0 0 0 0 0 0 0 0 0 0 0 127 0" result="hardAlpha"/>
<feOffset dx="2.13722" dy="16.5634"/>
<feGaussianBlur stdDeviation="2.40437"/>
<feComposite in2="hardAlpha" operator="out"/>
<feColorMatrix type="matrix" values="0 0 0 0 1 0 0 0 0 1 0 0 0 0 1 0 0 0 0.25 0"/>
<feBlend mode="normal" in2="effect1_dropShadow_1_170" result="effect2_dropShadow_1_170"/>
<feBlend mode="normal" in="SourceGraphic" in2="effect2_dropShadow_1_170" result="shape"/>
<feColorMatrix in="SourceAlpha" type="matrix" values="0 0 0 0 0 0 0 0 0 0 0 0 0 0 0 0 0 0 127 0" result="hardAlpha"/>
<feOffset dx="-1.06861" dy="-2.67152"/>
<feGaussianBlur stdDeviation="1.33576"/>
<feComposite in2="hardAlpha" operator="arithmetic" k2="-1" k3="1"/>
<feColorMatrix type="matrix" values="0 0 0 0 0 0 0 0 0 0 0 0 0 0 0 0 0 0 0.25 0"/>
<feBlend mode="normal" in2="shape" result="effect3_innerShadow_1_170"/>
</filter>
<filter id="filter3_ddi_1_170" x="44.654" y="40.3304" width="25.4501" height="30.8564" filterUnits="userSpaceOnUse" color-interpolation-filters="sRGB">
<feFlood flood-opacity="0" result="BackgroundImageFix"/>
<feColorMatrix in="SourceAlpha" type="matrix" values="0 0 0 0 0 0 0 0 0 0 0 0 0 0 0 0 0 0 127 0" result="hardAlpha"/>
<feOffset dx="1.60291" dy="2.67152"/>
<feGaussianBlur stdDeviation="3.47298"/>
<feComposite in2="hardAlpha" operator="out"/>
<feColorMatrix type="matrix" values="0 0 0 0 0 0 0 0 0 0 0 0 0 0 0 0 0 0 0.1 0"/>
<feBlend mode="normal" in2="BackgroundImageFix" result="effect1_dropShadow_1_170"/>
<feColorMatrix in="SourceAlpha" type="matrix" values="0 0 0 0 0 0 0 0 0 0 0 0 0 0 0 0 0 0 127 0" result="hardAlpha"/>
<feOffset dx="2.13722" dy="16.5634"/>
<feGaussianBlur stdDeviation="2.40437"/>
<feComposite in2="hardAlpha" operator="out"/>
<feColorMatrix type="matrix" values="0 0 0 0 1 0 0 0 0 1 0 0 0 0 1 0 0 0 0.25 0"/>
<feBlend mode="normal" in2="effect1_dropShadow_1_170" result="effect2_dropShadow_1_170"/>
<feBlend mode="normal" in="SourceGraphic" in2="effect2_dropShadow_1_170" result="shape"/>
<feColorMatrix in="SourceAlpha" type="matrix" values="0 0 0 0 0 0 0 0 0 0 0 0 0 0 0 0 0 0 127 0" result="hardAlpha"/>
<feOffset dx="-1.06861" dy="-2.67152"/>
<feGaussianBlur stdDeviation="1.33576"/>
<feComposite in2="hardAlpha" operator="arithmetic" k2="-1" k3="1"/>
<feColorMatrix type="matrix" values="0 0 0 0 0 0 0 0 0 0 0 0 0 0 0 0 0 0 0.25 0"/>
<feBlend mode="normal" in2="shape" result="effect3_innerShadow_1_170"/>
</filter>
<filter id="filter4_ddi_1_170" x="42.222" y="37.5346" width="31.1781" height="33.1473" filterUnits="userSpaceOnUse" color-interpolation-filters="sRGB">
<feFlood flood-opacity="0" result="BackgroundImageFix"/>
<feColorMatrix in="SourceAlpha" type="matrix" values="0 0 0 0 0 0 0 0 0 0 0 0 0 0 0 0 0 0 127 0" result="hardAlpha"/>
<feOffset dx="1.60291" dy="2.67152"/>
<feGaussianBlur stdDeviation="3.47298"/>
<feComposite in2="hardAlpha" operator="out"/>
<feColorMatrix type="matrix" values="0 0 0 0 0 0 0 0 0 0 0 0 0 0 0 0 0 0 0.1 0"/>
<feBlend mode="normal" in2="BackgroundImageFix" result="effect1_dropShadow_1_170"/>
<feColorMatrix in="SourceAlpha" type="matrix" values="0 0 0 0 0 0 0 0 0 0 0 0 0 0 0 0 0 0 127 0" result="hardAlpha"/>
<feOffset dx="2.13722" dy="16.5634"/>
<feGaussianBlur stdDeviation="2.40437"/>
<feComposite in2="hardAlpha" operator="out"/>
<feColorMatrix type="matrix" values="0 0 0 0 1 0 0 0 0 1 0 0 0 0 1 0 0 0 0.25 0"/>
<feBlend mode="normal" in2="effect1_dropShadow_1_170" result="effect2_dropShadow_1_170"/>
<feBlend mode="normal" in="SourceGraphic" in2="effect2_dropShadow_1_170" result="shape"/>
<feColorMatrix in="SourceAlpha" type="matrix" values="0 0 0 0 0 0 0 0 0 0 0 0 0 0 0 0 0 0 127 0" result="hardAlpha"/>
<feOffset dx="-1.06861" dy="-2.67152"/>
<feGaussianBlur stdDeviation="1.33576"/>
<feComposite in2="hardAlpha" operator="arithmetic" k2="-1" k3="1"/>
<feColorMatrix type="matrix" values="0 0 0 0 0 0 0 0 0 0 0 0 0 0 0 0 0 0 0.25 0"/>
<feBlend mode="normal" in2="shape" result="effect3_innerShadow_1_170"/>
</filter>
<filter id="filter5_ddi_1_170" x="34.462" y="44.2046" width="42.4362" height="39.3414" filterUnits="userSpaceOnUse" color-interpolation-filters="sRGB">
<feFlood flood-opacity="0" result="BackgroundImageFix"/>
<feColorMatrix in="SourceAlpha" type="matrix" values="0 0 0 0 0 0 0 0 0 0 0 0 0 0 0 0 0 0 127 0" result="hardAlpha"/>
<feOffset dx="1.60291" dy="2.67152"/>
<feGaussianBlur stdDeviation="3.47298"/>
<feComposite in2="hardAlpha" operator="out"/>
<feColorMatrix type="matrix" values="0 0 0 0 0 0 0 0 0 0 0 0 0 0 0 0 0 0 0.1 0"/>
<feBlend mode="normal" in2="BackgroundImageFix" result="effect1_dropShadow_1_170"/>
<feColorMatrix in="SourceAlpha" type="matrix" values="0 0 0 0 0 0 0 0 0 0 0 0 0 0 0 0 0 0 127 0" result="hardAlpha"/>
<feOffset dx="2.13722" dy="16.5634"/>
<feGaussianBlur stdDeviation="2.40437"/>
<feComposite in2="hardAlpha" operator="out"/>
<feColorMatrix type="matrix" values="0 0 0 0 1 0 0 0 0 1 0 0 0 0 1 0 0 0 0.25 0"/>
<feBlend mode="normal" in2="effect1_dropShadow_1_170" result="effect2_dropShadow_1_170"/>
<feBlend mode="normal" in="SourceGraphic" in2="effect2_dropShadow_1_170" result="shape"/>
<feColorMatrix in="SourceAlpha" type="matrix" values="0 0 0 0 0 0 0 0 0 0 0 0 0 0 0 0 0 0 127 0" result="hardAlpha"/>
<feOffset dx="-1.06861" dy="-2.67152"/>
<feGaussianBlur stdDeviation="1.33576"/>
<feComposite in2="hardAlpha" operator="arithmetic" k2="-1" k3="1"/>
<feColorMatrix type="matrix" values="0 0 0 0 0 0 0 0 0 0 0 0 0 0 0 0 0 0 0.25 0"/>
<feBlend mode="normal" in2="shape" result="effect3_innerShadow_1_170"/>
</filter>
</defs>
</svg>
