<svg id="viber" width="17" height="19" viewBox="0 0 17 19" fill="none" xmlns="http://www.w3.org/2000/svg">
<path d="M15.1578 1.82149C14.7302 1.39329 13.002 0.0319303 9.15264 0.013403C9.15264 0.013403 4.61328 -0.283634 2.40035 1.91899C1.16854 3.25596 0.735253 5.21226 0.68956 7.63768C0.643805 10.063 0.584662 14.6084 4.62231 15.8408H4.62618L4.6236 17.7215C4.6236 17.7215 4.59774 18.4828 5.05977 18.6381C5.6186 18.8265 5.94655 18.2478 6.48007 17.624C6.7729 17.2815 7.17732 16.7785 7.48207 16.3941C10.2434 16.6462 12.3672 16.0698 12.6084 15.9847C13.166 15.7884 16.3209 15.3496 16.834 10.8049C17.3637 6.12023 16.5778 3.15706 15.1578 1.82149ZM15.6257 10.4688C15.1926 14.2637 12.6337 14.5022 12.1619 14.6664C11.9612 14.7365 10.096 15.24 7.75039 15.0739C7.75039 15.0739 6.00257 17.3619 5.45664 17.9569C5.37146 18.0499 5.27123 18.0874 5.20435 18.069C5.11038 18.0441 5.08453 17.9232 5.08557 17.7467C5.0871 17.4945 5.10055 14.6216 5.10055 14.6216C1.68505 13.5926 1.88416 9.724 1.92291 7.69819C1.9616 5.67238 2.31235 4.01285 3.35408 2.89674C5.22578 1.057 9.08164 1.33191 9.08164 1.33191C12.3378 1.34731 13.8981 2.41136 14.2599 2.76778C15.4612 3.88395 16.0733 6.55483 15.6257 10.4677V10.4688Z" fill="#7360F2"/>
<path fill-rule="evenodd" clip-rule="evenodd" d="M9.21899 6.05937C9.22525 5.92908 9.32763 5.82898 9.4477 5.83578C9.89696 5.86117 10.2707 6.00872 10.5368 6.30742C10.802 6.60493 10.932 7.02053 10.9548 7.5197C10.9608 7.64999 10.8682 7.76089 10.7482 7.76735C10.6281 7.77382 10.5259 7.67338 10.52 7.54309C10.5004 7.11583 10.3924 6.82492 10.2239 6.63585C10.0564 6.44791 9.80078 6.32888 9.42504 6.30756C9.30497 6.30076 9.21273 6.18966 9.21899 6.05937Z" fill="#7360F2"/>
<path d="M8.8889 4.78654C8.89768 4.65638 9.00196 4.55862 9.12191 4.56815C10.0361 4.64072 10.7719 4.97975 11.3079 5.61461C11.8381 6.24327 12.0901 7.02542 12.0718 7.94266C12.0692 8.07315 11.9697 8.17658 11.8495 8.17378C11.7293 8.17092 11.6339 8.06289 11.6366 7.93246C11.6527 7.12359 11.4335 6.4634 10.9869 5.93377C10.5415 5.40634 9.91902 5.10517 9.09009 5.03933C8.97021 5.02986 8.88011 4.91663 8.8889 4.78654Z" fill="#7360F2"/>
<path fill-rule="evenodd" clip-rule="evenodd" d="M8.50501 3.57682C8.50581 3.44633 8.60395 3.3413 8.7242 3.34223C9.98758 3.35176 11.0555 3.80815 11.9128 4.71519C12.7774 5.62976 13.205 6.87489 13.2158 8.42126C13.2168 8.55175 13.12 8.65831 12.9998 8.65931C12.8795 8.66031 12.7813 8.55535 12.7805 8.42486C12.7703 6.97579 12.373 5.86175 11.6089 5.05348C10.8377 4.23761 9.88011 3.82348 8.72113 3.81468C8.60094 3.81375 8.50415 3.70725 8.50501 3.57682Z" fill="#7360F2"/>
<path d="M9.47942 10.6954C9.47942 10.6954 9.7854 10.7234 9.95017 10.5032L10.2714 10.0646C10.4264 9.84712 10.8003 9.70843 11.1665 9.92982C11.4409 10.0996 11.7073 10.2842 11.9647 10.483C12.2077 10.6769 12.7053 11.1275 12.7069 11.1275C12.9439 11.3447 12.9987 11.6636 12.8373 11.9999C12.8373 12.0018 12.836 12.0052 12.836 12.0069C12.6582 12.3413 12.4326 12.6429 12.1675 12.9003C12.1643 12.9019 12.1643 12.9036 12.1615 12.9053C11.9311 13.1142 11.7048 13.2329 11.4826 13.2615C11.4499 13.2677 11.4166 13.2699 11.3834 13.2682C11.2854 13.2692 11.1879 13.2529 11.0947 13.22L11.0875 13.2085C10.745 13.1037 10.1733 12.8414 9.22117 12.2714C8.67015 11.9454 8.1456 11.5694 7.6531 11.1474C7.40628 10.936 7.17081 10.7094 6.94787 10.4687L6.87656 10.3913C6.86858 10.3829 6.86084 10.3743 6.8528 10.3655C6.63102 10.1237 6.42221 9.86811 6.22734 9.60026C5.83852 9.0659 5.49201 8.49675 5.19157 7.89901C4.66628 6.86548 4.42454 6.24561 4.328 5.87346L4.31737 5.8656C4.28716 5.7645 4.27223 5.65867 4.27322 5.5523C4.27144 5.51631 4.2734 5.48026 4.27917 5.44474C4.30687 5.20388 4.4165 4.95816 4.60793 4.70744C4.60947 4.70437 4.611 4.70437 4.6126 4.70098C4.84973 4.41327 5.12763 4.16848 5.43588 3.97574C5.43741 3.97574 5.44048 3.97408 5.44233 3.97408C5.75217 3.79893 6.0461 3.85831 6.24595 4.11417C6.24748 4.1159 6.66198 4.65586 6.8399 4.91957C7.02304 5.19915 7.19322 5.48852 7.34965 5.78662C7.55367 6.1837 7.42587 6.5903 7.22547 6.75791L6.82129 7.10647C6.61733 7.28527 6.64417 7.61737 6.64417 7.61737C6.64417 7.61737 7.24279 10.0758 9.47942 10.6954Z" fill="#7360F2"/>
</svg>
